<svg width="20" height="21" viewBox="0 0 20 21" fill="none" xmlns="http://www.w3.org/2000/svg">
<path d="M13.9062 3.01001C12.293 3.01001 10.8805 3.70376 10 4.87641C9.11953 3.70376 7.70703 3.01001 6.09375 3.01001C4.80955 3.01146 3.57837 3.52224 2.6703 4.43031C1.76223 5.33838 1.25145 6.56956 1.25 7.85376C1.25 13.3225 9.3586 17.7491 9.70391 17.9319C9.79492 17.9808 9.89666 18.0065 10 18.0065C10.1033 18.0065 10.2051 17.9808 10.2961 17.9319C10.6414 17.7491 18.75 13.3225 18.75 7.85376C18.7486 6.56956 18.2378 5.33837 17.3297 4.43031C16.4216 3.52224 15.1904 3.01145 13.9062 3.01001ZM10 16.6663C8.57344 15.835 2.5 12.0483 2.5 7.85376C2.50124 6.90102 2.88027 5.98765 3.55396 5.31396C4.22765 4.64027 5.14101 4.26125 6.09375 4.26001C7.61328 4.26001 8.88906 5.06938 9.42188 6.36938C9.46896 6.48401 9.54907 6.58206 9.65201 6.65106C9.75495 6.72006 9.87607 6.7569 10 6.7569C10.1239 6.7569 10.2451 6.72006 10.348 6.65106C10.4509 6.58206 10.531 6.48401 10.5781 6.36938C11.1109 5.06704 12.3867 4.26001 13.9063 4.26001C14.859 4.26125 15.7724 4.64027 16.446 5.31396C17.1197 5.98765 17.4988 6.90102 17.5 7.85376C17.5 12.042 11.425 15.8342 10 16.6663Z" fill="#549BA0"/>
</svg>
